<svg width="164" height="38" viewBox="0 0 164 38" fill="none" xmlns="http://www.w3.org/2000/svg">
<path d="M116.613 3.42195L116.613 3.39593L116.613 0.0383911L113.587 0.0383911C111.915 0.0383911 110.549 1.43086 110.549 3.14867L110.549 6.25894L113.6 6.25894C115.183 6.25894 116.485 5.00963 116.613 3.42195Z" fill="white"/>
<path d="M39.2919 10.0857C37.8877 8.71922 35.7814 7.89935 33.4836 7.89935C26.9605 7.89935 22.7351 12.2589 22.7351 18.987C22.7351 22.4877 23.7819 25.3768 25.7605 27.3678C27.6371 29.2548 30.2667 30.2439 33.356 30.2439L33.4581 30.2439C35.4368 30.2048 37.8111 29.385 39.3302 27.8363L39.4834 29.6322L45.2534 29.6322L45.2534 8.39387L39.3941 8.39387L39.2919 10.0857ZM37.8367 22.774C36.9176 23.8672 35.6027 24.4398 34.0198 24.4398C30.9178 24.4398 28.837 22.2535 28.837 19C28.837 15.7726 30.9178 13.5994 34.0198 13.5994C37.5303 13.5994 39.126 16.4103 39.126 19.0261C39.1132 20.4446 38.6664 21.785 37.8367 22.774Z" fill="white"/>
<path d="M71.8952 8.10759C69.0996 8.10759 67.0188 9.08362 65.4231 11.1528C64.2232 9.12266 62.1679 8.02951 59.5255 8.02951C58.734 8.02951 56.3852 8.18568 54.7512 9.81239L54.5342 8.35485L48.8918 8.35485L48.8918 29.6453L54.9937 29.6453L54.9937 18.3103C54.9937 16.124 56.2192 13.9247 58.5426 13.9247C60.8914 13.9247 61.9382 16.124 61.9382 18.3103L61.9382 29.6453L68.0401 29.6453L68.0401 18.3103C68.0401 16.1631 69.2911 14.0028 71.6655 14.0028C74.4356 14.0028 74.7419 16.9569 74.7419 18.2323L74.7419 29.6453L80.8438 29.6453L80.8438 18.2323C80.8311 11.6994 77.6652 8.10759 71.8952 8.10759Z" fill="white"/>
<path d="M96.7367 7.93835C94.924 7.93835 92.5624 8.57603 90.8263 10.2678L90.6092 8.39383L84.9031 8.39383L84.9031 38L91.005 38L91.005 28.2918C92.639 29.6322 94.975 30.1397 96.9026 30.1397C103.196 30.1397 107.421 25.676 107.421 19.039C107.421 12.6103 102.928 7.93835 96.7367 7.93835ZM96.3792 24.0753C93.5581 24.0753 91.439 21.9151 91.439 19.039C91.439 16.5274 92.9709 14.0027 96.3792 14.0027C99.7876 14.0027 101.319 16.5274 101.319 19.039C101.332 21.9151 99.2004 24.0753 96.3792 24.0753Z" fill="white"/>
<path d="M116.651 8.30273L110.549 8.30273L110.549 29.6322L116.651 29.6322L116.651 8.30273Z" fill="white"/>
<path d="M138.952 9.55141L138.952 8.39319L132.225 8.39319L126.544 15.3035L126.544 0.0383911L120.442 0.0383911L120.442 29.6446L126.544 29.6446L126.544 21.6802L133.31 29.6446L140.063 29.6446L140.063 28.3953L131.178 18.4268L138.952 9.55141Z" fill="white"/>
<path d="M157.411 8.39391L157.309 10.0987C155.905 8.73226 153.799 7.9124 151.501 7.9124C144.978 7.9124 140.752 12.272 140.752 19.0131C140.752 22.5138 141.799 25.4028 143.778 27.3939C145.654 29.2809 148.284 30.2699 151.373 30.2699H151.475C153.454 30.2309 155.828 29.411 157.347 27.8624L157.488 29.6583L163.258 29.6583L163.258 8.39391L157.411 8.39391ZM155.854 22.774C154.935 23.8672 153.62 24.4398 152.037 24.4398C148.935 24.4398 146.854 22.2535 146.854 19.0001C146.854 15.7727 148.935 13.5994 152.037 13.5994C155.547 13.5994 157.143 16.4103 157.143 19.0261C157.143 20.4576 156.684 21.785 155.854 22.774Z" fill="white"/>
<path d="M7.59546 15.148L10.1103 12.5843L15.3058 12.5843C18.5355 12.5843 21.1907 10.0466 21.446 6.81918L21.446 0.0130137L15.3058 0.0130137C11.9102 0.0130137 9.14008 2.82397 9.14008 6.29863L9.14008 11.374L6.49763 14.0548L6.49763 10.9575L6.49763 10.9706L6.49763 0L0 0L-1.76647e-07 29.6452L6.49763 29.6452L6.49763 18.037L6.49763 18.05L6.49763 17.2432L16.1866 29.6452L22.6077 29.6452L22.6077 28.3959L12.2676 15.148L7.59546 15.148Z" fill="white"/>
</svg>
