<svg width="164" height="38" viewBox="0 0 164 38" fill="none" xmlns="http://www.w3.org/2000/svg">
<path d="M116.612 3.42195L116.612 3.39593L116.612 0.0383911L113.587 0.0383911C111.915 0.0383911 110.549 1.43086 110.549 3.14867L110.549 6.25894L113.6 6.25894C115.183 6.25894 116.485 5.00963 116.612 3.42195Z" fill="#141414"/>
<path d="M39.2922 10.0857C37.888 8.71922 35.7817 7.89935 33.4839 7.89935C26.9607 7.89935 22.7354 12.2589 22.7354 18.987C22.7354 22.4877 23.7821 25.3768 25.7608 27.3678C27.6373 29.2548 30.267 30.2439 33.3562 30.2439L33.4584 30.2439C35.437 30.2048 37.8114 29.385 39.3305 27.8363L39.4837 29.6322L45.2537 29.6322L45.2537 8.39387L39.3943 8.39387L39.2922 10.0857ZM37.8369 22.774C36.9178 23.8672 35.603 24.4398 34.02 24.4398C30.918 24.4398 28.8372 22.2535 28.8372 19C28.8372 15.7726 30.918 13.5994 34.02 13.5994C37.5305 13.5994 39.1262 16.4103 39.1262 19.0261C39.1135 20.4446 38.6667 21.785 37.8369 22.774Z" fill="#141414"/>
<path d="M71.895 8.10759C69.0994 8.10759 67.0186 9.08362 65.4229 11.1528C64.2229 9.12266 62.1677 8.02951 59.5252 8.02951C58.7338 8.02951 56.3849 8.18568 54.751 9.81239L54.5339 8.35485L48.8916 8.35485L48.8916 29.6453L54.9935 29.6453L54.9935 18.3103C54.9935 16.124 56.219 13.9247 58.5423 13.9247C60.8912 13.9247 61.9379 16.124 61.9379 18.3103L61.9379 29.6453L68.0398 29.6453L68.0398 18.3103C68.0398 16.1631 69.2908 14.0028 71.6652 14.0028C74.4353 14.0028 74.7417 16.9569 74.7417 18.2323L74.7417 29.6453L80.8436 29.6453L80.8436 18.2323C80.8308 11.6994 77.665 8.10759 71.895 8.10759Z" fill="#141414"/>
<path d="M96.7369 7.93835C94.9242 7.93835 92.5626 8.57603 90.8265 10.2678L90.6095 8.39383L84.9033 8.39383L84.9033 38L91.0052 38L91.0052 28.2918C92.6392 29.6322 94.9753 30.1397 96.9029 30.1397C103.196 30.1397 107.422 25.676 107.422 19.039C107.422 12.6103 102.928 7.93835 96.7369 7.93835ZM96.3795 24.0753C93.5583 24.0753 91.4392 21.9151 91.4392 19.039C91.4392 16.5274 92.9711 14.0027 96.3795 14.0027C99.7879 14.0027 101.32 16.5274 101.32 19.039C101.332 21.9151 99.2006 24.0753 96.3795 24.0753Z" fill="#141414"/>
<path d="M116.651 8.30273L110.549 8.30273L110.549 29.6322L116.651 29.6322L116.651 8.30273Z" fill="#141414"/>
<path d="M138.952 9.55141L138.952 8.39319L132.225 8.39319L126.544 15.3035L126.544 0.0383911L120.442 0.0383911L120.442 29.6446L126.544 29.6446L126.544 21.6802L133.31 29.6446L140.063 29.6446L140.063 28.3953L131.178 18.4268L138.952 9.55141Z" fill="#141414"/>
<path d="M157.411 8.39391L157.309 10.0987C155.905 8.73226 153.798 7.9124 151.501 7.9124C144.977 7.9124 140.752 12.272 140.752 19.0131C140.752 22.5138 141.799 25.4028 143.777 27.3939C145.654 29.2809 148.284 30.2699 151.373 30.2699H151.475C153.454 30.2309 155.828 29.411 157.347 27.8624L157.488 29.6583L163.258 29.6583L163.258 8.39391L157.411 8.39391ZM155.854 22.774C154.934 23.8672 153.62 24.4398 152.037 24.4398C148.935 24.4398 146.854 22.2535 146.854 19.0001C146.854 15.7727 148.935 13.5994 152.037 13.5994C155.547 13.5994 157.143 16.4103 157.143 19.0261C157.143 20.4576 156.683 21.785 155.854 22.774Z" fill="#141414"/>
<path d="M7.59546 15.148L10.1103 12.5843L15.3058 12.5843C18.5355 12.5843 21.1907 10.0466 21.446 6.81918L21.446 0.0130137L15.3058 0.0130137C11.9102 0.0130137 9.14008 2.82397 9.14008 6.29863L9.14008 11.374L6.49763 14.0548L6.49763 10.9575L6.49763 10.9706L6.49763 0L0 0L-1.43774e-06 29.6452L6.49763 29.6452L6.49763 18.037L6.49763 18.05L6.49763 17.2432L16.1866 29.6452L22.6077 29.6452L22.6077 28.3959L12.2676 15.148L7.59546 15.148Z" fill="#141414"/>
</svg>
