<svg width="34" height="26" viewBox="0 0 34 26" fill="none" xmlns="http://www.w3.org/2000/svg">
<path fill-rule="evenodd" clip-rule="evenodd" d="M31.9187 13.6966L32.4491 13.1663L31.9187 12.6359L21.2828 2L20.2221 3.06066L29.5778 12.4163L1 12.4163V13.9163L29.5778 13.9163L20.2221 23.2719L21.2828 24.3326L31.9187 13.6966Z" fill="black"/>
<path d="M32.4491 13.1663L33.1562 13.8734L33.8633 13.1663L33.1562 12.4592L32.4491 13.1663ZM31.9187 13.6966L31.2116 12.9895L31.2116 12.9895L31.9187 13.6966ZM31.9187 12.6359L31.2116 13.3431L31.2116 13.3431L31.9187 12.6359ZM21.2828 2L21.9899 1.29289L21.2828 0.585787L20.5757 1.29289L21.2828 2ZM20.2221 3.06066L19.515 2.35355L18.8079 3.06066L19.515 3.76777L20.2221 3.06066ZM29.5778 12.4163V13.4163H31.992L30.2849 11.7092L29.5778 12.4163ZM1 12.4163L1 11.4163H0V12.4163H1ZM1 13.9163H0V14.9163H1L1 13.9163ZM29.5778 13.9163L30.2849 14.6234L31.992 12.9163H29.5778V13.9163ZM20.2221 23.2719L19.515 22.5648L18.8079 23.2719L19.515 23.979L20.2221 23.2719ZM21.2828 24.3326L20.5757 25.0397L21.2828 25.7468L21.9899 25.0397L21.2828 24.3326ZM31.742 12.4592L31.2116 12.9895L32.6258 14.4037L33.1562 13.8734L31.742 12.4592ZM31.2116 13.3431L31.742 13.8734L33.1562 12.4592L32.6258 11.9288L31.2116 13.3431ZM20.5757 2.70711L31.2116 13.3431L32.6258 11.9288L21.9899 1.29289L20.5757 2.70711ZM20.9292 3.76777L21.9899 2.70711L20.5757 1.29289L19.515 2.35355L20.9292 3.76777ZM30.2849 11.7092L20.9292 2.35355L19.515 3.76777L28.8706 13.1234L30.2849 11.7092ZM1 13.4163L29.5778 13.4163V11.4163L1 11.4163L1 13.4163ZM2 13.9163V12.4163H0V13.9163H2ZM29.5778 12.9163L1 12.9163L1 14.9163L29.5778 14.9163V12.9163ZM20.9292 23.979L30.2849 14.6234L28.8706 13.2092L19.515 22.5648L20.9292 23.979ZM21.9899 23.6254L20.9292 22.5648L19.515 23.979L20.5757 25.0397L21.9899 23.6254ZM31.2116 12.9895L20.5757 23.6254L21.9899 25.0397L32.6258 14.4037L31.2116 12.9895Z" fill="black"/>
</svg>
